<svg width="60" height="98" viewBox="0 0 60 98" fill="none" xmlns="http://www.w3.org/2000/svg">
<path d="M33.6543 81.4291C42.1782 92.3317 15.6155 95.7016 22.3553 78.2574C26.9146 76.6055 37.064 70.7899 41.187 61.4335C45.4415 59.3653 53.4372 55.5223 57.1218 53.3719C57.8651 52.9381 58.4833 52.2944 58.7609 51.4798C60.9301 45.1138 50.6934 45.016 53.8736 52.6858L42.0244 58.2618C44.9979 34.4743 23.1481 50.9018 19.9764 64.3814C-2.62174 55.461 -7.77568 86.5831 14.6242 79.6451C9.86669 109.181 41.187 94.9087 41.187 83.8078C40.394 74.9131 31.9496 79.2486 33.6543 81.4291Z" fill="black"/>
<path fill-rule="evenodd" clip-rule="evenodd" d="M25.3325 54.5172C22.8967 57.5659 20.9536 61.0938 20.1694 64.4269L20.1169 64.65L19.9036 64.5659C14.294 62.3516 9.79278 62.6311 6.5408 64.1583C3.28589 65.6868 1.2627 68.4734 0.619368 71.3138C-0.024207 74.1552 0.714237 77.031 2.9545 78.7764C5.1969 80.5235 8.99826 81.1802 14.5656 79.4558L14.8707 79.3613L14.8199 79.6767C13.6341 87.0385 14.7071 91.6118 16.918 94.1882C19.1228 96.7574 22.5084 97.3953 26.0874 96.7702C29.6659 96.1452 33.4004 94.2611 36.239 91.8433C39.0817 89.4221 40.9847 86.5026 40.9888 83.8167C40.7922 81.6283 40.1287 80.2877 39.3012 79.5227C38.4751 78.7591 37.4601 78.5455 36.5081 78.6621C35.5511 78.7793 34.6728 79.2291 34.142 79.7691C33.8766 80.0391 33.7083 80.321 33.6495 80.5838C33.5923 80.8396 33.6363 81.0843 33.8105 81.3071C34.8921 82.6906 35.43 83.9707 35.537 85.1203C35.6444 86.2733 35.3167 87.2798 34.6955 88.1055C33.46 89.7474 31.0801 90.6591 28.6748 90.6717C26.2652 90.6843 23.7724 89.7951 22.3149 87.761C20.853 85.7208 20.4712 82.5838 22.1704 78.1861L22.2029 78.1019L22.2877 78.0712C24.547 77.2526 28.2058 75.3961 31.8127 72.5785C35.4195 69.7609 38.9616 65.9922 41.0056 61.3536L41.035 61.2871L41.1004 61.2553C41.4923 61.0648 41.9157 60.8593 42.3644 60.6416C46.7928 58.4928 53.6839 55.1489 57.0219 53.2008C57.7347 52.7847 58.3146 52.1749 58.5732 51.416C59.0996 49.8713 58.8631 48.7449 58.3082 48.0252C57.7487 47.2996 56.8397 46.9522 55.9526 47.0172C55.0684 47.082 54.2221 47.5551 53.7784 48.4543C53.3337 49.3556 53.2749 50.7243 54.0567 52.61L54.1292 52.7847L41.7831 58.5946L41.8277 58.2373C42.1979 55.2756 42.1801 52.9518 41.8657 51.1769C41.5511 49.4017 40.9426 48.1895 40.1434 47.4309C38.5604 45.9284 36.1202 46.1233 33.3954 47.5228C30.6834 48.9158 27.7684 51.4683 25.3325 54.5172ZM42.2642 57.93C42.5926 55.1123 42.5668 52.8616 42.256 51.1078C41.9324 49.281 41.297 47.9793 40.4163 47.1434C38.6397 45.4571 35.9766 45.7514 33.2143 47.1702C30.439 48.5956 27.4827 51.1907 25.0227 54.2697C22.6159 57.2822 20.671 60.7744 19.8372 64.1144C14.2449 61.9581 9.70044 62.2365 6.37228 63.7994C3.00509 65.3806 0.902638 68.2683 0.232703 71.2262C-0.436988 74.1829 0.323682 77.2293 2.71084 79.0892C5.05276 80.9138 8.90783 81.5559 14.3792 79.9268C13.2658 87.1532 14.3264 91.777 16.6171 94.4463C18.9469 97.1612 22.4993 97.7993 26.1556 97.1607C29.8126 96.522 33.6108 94.6026 36.4961 92.1451C39.3742 89.6938 41.3853 86.6701 41.3853 83.808V83.7991L41.3845 83.7904C41.1835 81.5366 40.4948 80.0862 39.5703 79.2316C38.6433 78.3746 37.5051 78.1406 36.4599 78.2686C35.4198 78.396 34.457 78.883 33.8592 79.4912C33.5602 79.7954 33.3424 80.1404 33.2626 80.4973C33.1812 80.8612 33.2462 81.229 33.4982 81.5513C34.5475 82.8935 35.0442 84.1036 35.1423 85.157C35.2401 86.207 34.9437 87.1162 34.3787 87.8671C33.2416 89.3783 31.0003 90.263 28.6728 90.2752C26.3497 90.2874 23.9983 89.4297 22.6372 87.5301C21.2893 85.649 20.8747 82.6919 22.508 78.4128C24.8134 77.5644 28.4629 75.6984 32.0568 72.891C35.6781 70.0621 39.2555 66.2674 41.3389 61.5802C41.7125 61.3986 42.1143 61.2036 42.539 60.9976C46.9632 58.8508 53.8693 55.4998 57.2218 53.5432C57.9954 53.0916 58.6519 52.4141 58.9485 51.5439C59.5067 49.9055 59.277 48.6324 58.6221 47.7831C57.9717 46.9395 56.927 46.5483 55.9236 46.6218C54.9174 46.6955 53.9364 47.2382 53.4229 48.2788C52.9259 49.286 52.8844 50.7227 53.6195 52.5864L42.2642 57.93ZM26.8287 62.9128L39.4515 59.8527C40.2939 57.5519 40.7955 55.6785 41.0219 54.1864C41.2521 52.6695 41.1952 51.563 40.9373 50.8049C40.6829 50.0573 40.2365 49.6538 39.6639 49.5087C39.0764 49.3598 38.3218 49.4741 37.4487 49.846C35.7049 50.5889 33.5855 52.3182 31.6136 54.6845C29.7149 56.9628 27.9654 59.8167 26.8287 62.9128ZM41.4139 54.2458C41.1789 55.7944 40.6572 57.7272 39.7871 60.0889L39.7505 60.1881L26.2103 63.4706L26.3309 63.1265C27.4795 59.8478 29.3134 56.8252 31.309 54.4306C33.3017 52.0396 35.469 50.2585 37.2933 49.4813C38.2043 49.0932 39.0541 48.9452 39.7613 49.1244C40.4834 49.3074 41.0219 49.8227 41.3126 50.6772C41.5999 51.5214 41.6483 52.7005 41.4139 54.2458ZM36.7529 62.9171L36.6135 63.2657C35.667 65.6319 31.8683 70.8575 24.1947 73.0956L23.8751 73.1888L25.5581 65.4049L36.7529 62.9171ZM25.892 65.7368L24.4039 72.6192C31.375 70.4789 34.9865 65.8371 36.0925 63.47L25.892 65.7368ZM6.45089 71.7773C7.12279 68.3144 11.2257 64.8633 18.6381 66.7664L18.8626 66.8241L18.7708 67.0369C16.6515 71.9533 15.2444 75.1653 14.8055 76.1572L14.7721 76.2326L14.6952 76.2621C11.6881 77.4148 9.4557 77.196 8.04926 76.2082C6.64083 75.2191 6.11706 73.4978 6.45089 71.7773ZM14.4764 75.9211C11.5772 77.0144 9.5234 76.7591 8.27712 75.8838C7.02184 75.0022 6.52968 73.4526 6.84009 71.8528C7.45025 68.7081 11.2038 65.3576 18.3144 67.0941C16.2976 71.7714 14.9424 74.8663 14.4764 75.9211Z" fill="black"/>
<path d="M26.5626 63.1617C29.627 51.5598 43.7576 40.3512 37.7989 60.0154L26.5626 63.1617Z" fill="white"/>
<path fill-rule="evenodd" clip-rule="evenodd" d="M26.846 62.8765L37.6406 59.8539C38.364 57.4511 38.782 55.5216 38.9556 54.0064C39.1322 52.4655 39.0538 51.3703 38.8008 50.645C38.5516 49.9303 38.1413 49.5907 37.6373 49.5058C37.1125 49.4175 36.4392 49.5965 35.662 50.0363C34.1129 50.913 32.2658 52.7606 30.6114 55.124C29.0239 57.3918 27.6263 60.1168 26.846 62.8765ZM39.3495 54.0515C39.1698 55.6201 38.7355 57.608 37.9886 60.0729L37.9571 60.177L26.2824 63.446L26.3709 63.1111C27.144 60.1839 28.6133 57.2869 30.2866 54.8966C31.9574 52.5098 33.845 50.609 35.4668 49.6913C36.2751 49.2339 37.0462 49.0043 37.7031 49.1149C38.3809 49.229 38.8897 49.6959 39.1752 50.5144C39.4569 51.3222 39.5288 52.4869 39.3495 54.0515Z" fill="white"/>
<path d="M36.474 63.2178L25.7696 65.5965L24.1838 72.931C31.7958 70.7108 35.5489 65.5304 36.474 63.2178Z" fill="white"/>
<path fill-rule="evenodd" clip-rule="evenodd" d="M36.7975 62.9429L36.6581 63.2914C35.7116 65.6576 31.9129 70.8832 24.2393 73.1214L23.9197 73.2146L25.6027 65.4306L36.7975 62.9429ZM25.9365 65.7625L24.4485 72.6449C31.4196 70.5047 35.0311 65.8629 36.1371 63.4958L25.9365 65.7625Z" fill="white"/>
<path d="M18.6334 66.9842L14.6688 76.1026C3.17148 80.6619 3.17146 63.2178 18.6334 66.9842Z" fill="white"/>
<path fill-rule="evenodd" clip-rule="evenodd" d="M14.5197 75.9483C11.7217 77.0388 9.66614 76.786 8.37494 75.9078C7.07182 75.0214 6.49911 73.4665 6.73739 71.87C6.97537 70.2756 8.02446 68.6437 9.96533 67.6371C11.8677 66.6504 14.6403 66.259 18.3571 67.1222L14.5197 75.9483ZM9.7828 67.2851C11.8308 66.223 14.7816 65.8419 18.6802 66.7915L18.909 66.8472L14.8179 76.2568L14.7418 76.2869C11.8299 77.4417 9.59954 77.2202 8.15196 76.2356C6.70466 75.2512 6.08799 73.5353 6.34528 71.8115C6.60288 70.0856 7.73431 68.3476 9.7828 67.2851Z" fill="white"/>
<path d="M29.8146 10.7963L34.3964 0.222914C34.4216 0.164835 34.5042 0.165417 34.5285 0.223846L38.9345 10.7982C38.9432 10.8192 38.9415 10.8432 38.9298 10.8627L36.8059 14.4025C36.7992 14.4136 36.7957 14.4264 36.7957 14.4394V18.8326C36.7957 18.8722 36.7636 18.9044 36.7239 18.9044H32.2032C32.1636 18.9044 32.1314 18.8722 32.1314 18.8326V14.4408C32.1314 14.4269 32.1274 14.4133 32.1198 14.4017L29.8203 10.8639C29.8072 10.8438 29.8051 10.8184 29.8146 10.7963Z" fill="black"/>
<path fill-rule="evenodd" clip-rule="evenodd" d="M34.2318 0.151292C34.3199 -0.051984 34.6089 -0.049948 34.6941 0.154555L39.1001 10.7289C39.1308 10.8025 39.1246 10.8863 39.0836 10.9547L36.9751 14.4689V18.8323C36.9751 18.971 36.8626 19.0835 36.7239 19.0835H32.2032C32.0645 19.0835 31.9521 18.971 31.9521 18.8323V14.4724L29.6699 10.9614C29.624 10.8908 29.6166 10.8019 29.65 10.7247L34.2318 0.151292ZM34.363 0.29272L34.3629 0.29255L34.4623 0.251152L34.3629 0.29255C34.3629 0.292607 34.363 0.292664 34.363 0.29272ZM34.4603 0.526345L38.748 10.8167L36.6521 14.3099C36.6287 14.3489 36.6163 14.3936 36.6163 14.4391V18.7247H32.3108V14.4405C32.3108 14.3919 32.2968 14.3444 32.2703 14.3036L30.0022 10.8143L34.4603 0.526345Z" fill="black"/>
<path d="M38.7593 33.1038L34.2652 45.7979C34.2425 45.8621 34.1516 45.8615 34.1296 45.7971L29.8094 33.106C29.803 33.0871 29.8047 33.0663 29.8143 33.0487L32.1228 28.7869C32.1285 28.7764 32.1314 28.7646 32.1314 28.7527V23.4608C32.1314 23.4212 32.1636 23.3891 32.2032 23.3891H36.7239C36.7636 23.3891 36.7957 23.4212 36.7957 23.4608V28.7552C36.7957 28.7655 36.7979 28.7757 36.8022 28.7851L38.7569 33.0499C38.7647 33.0669 38.7655 33.0862 38.7593 33.1038Z" fill="black"/>
<path fill-rule="evenodd" clip-rule="evenodd" d="M34.1996 45.4456L38.5757 33.0848L36.6392 28.8597L36.8023 28.7849L36.6392 28.8597C36.6241 28.8268 36.6163 28.7911 36.6163 28.755V23.5683H32.3109V28.7525C32.3109 28.7943 32.3005 28.8354 32.2806 28.8721L29.9945 33.0926L34.1996 45.4456ZM38.5938 33.1244C38.5938 33.1244 38.5939 33.1244 38.5939 33.1245L38.6917 33.0796L38.7593 33.1035L38.6917 33.0796L38.7569 33.0497L38.7569 33.0497M38.6917 33.0796L38.7569 33.0497ZM38.6917 33.0796L38.6917 33.0796L38.6917 33.0796H38.6917H38.6917ZM38.5938 33.1244L38.5939 33.1245L38.6917 33.0796M34.0962 45.7376L34.0961 45.7378L34.1976 45.7738L34.0961 45.7378C34.0962 45.7378 34.0962 45.7377 34.0962 45.7376ZM34.4344 45.8576C34.3549 46.0821 34.0366 46.0802 33.9599 45.8547L29.6397 33.1637C29.6171 33.0974 29.6232 33.0247 29.6566 32.9631L31.9521 28.7252L31.9521 23.4606C31.9521 23.3219 32.0645 23.2095 32.2032 23.2095H36.724C36.8627 23.2095 36.9751 23.3219 36.9751 23.4606V28.7315L38.92 32.975C38.9472 33.0343 38.9503 33.1019 38.9285 33.1634L34.4344 45.8576Z" fill="black"/>
<path d="M25.3228 25.9688L16.4735 21.4831C16.4206 21.4563 16.4212 21.3805 16.4745 21.3546L25.3299 17.0383C25.3522 17.0275 25.3785 17.0289 25.3995 17.042L28.3552 18.8936C28.3667 18.9007 28.3799 18.9045 28.3933 18.9045H32.0597C32.0993 18.9045 32.1314 18.9366 32.1314 18.9763V23.3176C32.1314 23.3572 32.0993 23.3894 32.0597 23.3894H28.3994C28.3822 23.3894 28.3655 23.3956 28.3525 23.4069L25.4022 25.9591C25.3801 25.9781 25.3487 25.982 25.3228 25.9688Z" fill="black"/>
<path fill-rule="evenodd" clip-rule="evenodd" d="M16.7478 21.4207L25.3394 25.7759L28.2351 23.271L28.3525 23.4067L28.2351 23.271C28.2808 23.2315 28.3391 23.2098 28.3995 23.2098H31.9521V19.0837H28.3933C28.3462 19.0837 28.3 19.0704 28.26 19.0454L25.3549 17.2256L16.7478 21.4207ZM25.4085 17.1994C25.4085 17.1994 25.4084 17.1995 25.4083 17.1995ZM25.3044 17.1939C25.3043 17.1939 25.3043 17.1939 25.3042 17.1939ZM16.3924 21.6429C16.2073 21.5491 16.2094 21.284 16.3959 21.1931L25.2513 16.8769C25.3293 16.8389 25.4213 16.8438 25.4947 16.8898L28.4243 18.7249H32.0597C32.1984 18.7249 32.3109 18.8374 32.3109 18.9761V23.3174C32.3109 23.4561 32.1984 23.5686 32.0597 23.5686H28.4396L25.5195 26.0946L25.4022 25.9589L25.5195 26.0946C25.4424 26.1613 25.3326 26.1747 25.2417 26.1286L16.3924 21.6429L16.4735 21.4829L16.4738 21.4823M16.3924 21.6429L16.4735 21.4829Z" fill="black"/>
<path d="M43.6011 16.6821L52.4536 21.1695C52.5065 21.1963 52.5059 21.272 52.4526 21.298L43.6007 25.6125C43.5766 25.6243 43.5479 25.6216 43.5264 25.6055L40.5735 23.4035C40.5611 23.3942 40.5461 23.3892 40.5306 23.3892H36.8674C36.8278 23.3892 36.7957 23.3571 36.7957 23.3175V18.9761C36.7957 18.9365 36.8278 18.9044 36.8674 18.9044H40.5306C40.5461 18.9044 40.5611 18.8994 40.5735 18.8901L43.5257 16.6886C43.5476 16.6723 43.5768 16.6697 43.6011 16.6821Z" fill="black"/>
<path fill-rule="evenodd" clip-rule="evenodd" d="M52.1794 21.2313L43.5795 16.872L40.6807 19.0337L40.5735 18.8899L40.6807 19.0337C40.6374 19.066 40.5847 19.0835 40.5306 19.0835H36.9751V23.2095H40.5306C40.5847 23.2095 40.6374 23.227 40.6807 23.2594L43.581 25.4222L52.1794 21.2313ZM52.5347 21.0092C52.7198 21.103 52.7177 21.368 52.5312 21.459L43.6793 25.7735C43.5948 25.8146 43.4944 25.8052 43.4191 25.749L43.5263 25.6052L43.4191 25.749L40.4949 23.5683H36.8674C36.7287 23.5683 36.6163 23.4559 36.6163 23.3172V18.9758C36.6163 18.8371 36.7287 18.7247 36.8674 18.7247H40.4949L43.4185 16.5444L43.5257 16.6883L43.4185 16.5444C43.4949 16.4874 43.5971 16.4786 43.6822 16.5218L43.6011 16.6818L43.6009 16.682M43.6011 16.6818L43.6822 16.5218L52.5347 21.0092L52.4536 21.1692L52.5347 21.0092" fill="black"/>
<rect x="31.952" y="19.084" width="5.02303" height="4.30546" fill="black"/>
</svg>
