<svg width="168" height="157" viewBox="0 0 168 157" fill="none" xmlns="http://www.w3.org/2000/svg">
<path fill-rule="evenodd" clip-rule="evenodd" d="M145.675 91.5346C144.556 92.1911 143.313 93.6997 142.736 96.7853L139.361 96.2107C140.064 92.4487 141.734 89.8878 143.983 88.5684C146.224 87.2533 148.75 87.3493 150.751 88.3359C152.744 89.3178 154.328 91.2365 154.64 93.6949C154.958 96.1947 153.925 98.9049 151.373 101.397L149.001 98.9502C150.975 97.0223 151.381 95.3511 151.234 94.193C151.081 92.9936 150.295 91.9781 149.192 91.4341C148.098 90.8949 146.802 90.8736 145.675 91.5346Z" fill="black"/>
<path fill-rule="evenodd" clip-rule="evenodd" d="M148.922 98.1414C151.25 99.356 153.328 100.97 154.706 102.628C155.439 103.51 155.902 104.577 155.73 105.746C155.56 106.897 154.834 107.73 154.091 108.278C152.653 109.337 150.515 109.827 148.623 109.881C145.38 109.973 142.333 110.506 140.468 111.619C139.576 112.151 139.077 112.742 138.855 113.374C138.635 114.003 138.595 114.944 139.15 116.357C139.532 117.328 139.93 118.293 140.354 119.22C140.93 120.479 141.759 121.563 142.711 122.049C143.491 122.448 145.282 123.866 147.096 122.602C147.882 122.054 148.315 120.978 148.846 121.757C149.377 122.535 149.171 123.609 148.386 124.157C145.713 126.02 143.199 126.195 141.107 125.125C139.187 124.143 137.943 122.27 137.228 120.704C136.77 119.702 136.347 118.677 135.952 117.673C135.19 115.733 135.047 113.914 135.618 112.284C136.189 110.656 137.378 109.487 138.753 108.666C141.42 107.075 145.219 106.532 148.59 106.436C150.121 106.393 151.455 105.983 152.091 105.514C152.23 105.412 152.295 105.338 152.323 105.298C152.303 105.233 152.241 105.091 152.052 104.864C151.01 103.611 149.309 102.256 147.294 101.205C145.279 100.154 143.082 99.4743 141.078 99.4326L141.212 95.9877C143.883 96.0433 146.594 96.9266 148.922 98.1414ZM152.331 105.341C152.331 105.341 152.33 105.337 152.331 105.329C152.332 105.337 152.331 105.341 152.331 105.341Z" fill="black"/>
<path fill-rule="evenodd" clip-rule="evenodd" d="M129.803 98.4256C124.96 98.1216 120.367 98.0241 117.793 98.3928C113.802 98.9645 110.299 97.551 108.421 94.9797C106.485 92.3275 106.488 88.7069 109.069 85.6179L111.684 87.8024C110.09 89.7096 110.229 91.5743 111.205 92.91C112.239 94.3266 114.426 95.4036 117.369 94.9819C120.343 94.556 125.273 94.6848 130.08 94.9866C134.943 95.2919 139.863 95.7878 142.917 96.1523L142.449 99.5739C139.447 99.2155 134.59 98.7261 129.803 98.4256Z" fill="black"/>
<path fill-rule="evenodd" clip-rule="evenodd" d="M41.0386 32.7172L78.318 42.6549L77.1444 46.8189L39.865 36.8812C38.5372 36.5273 37.2111 36.3504 36.1133 36.4766C35.0518 36.5986 34.3998 36.9698 33.9956 37.5528C33.5136 38.248 33.2454 39.0858 33.167 40.0482C33.0437 41.5614 33.72 42.8294 35.1382 43.9106C36.6002 45.0252 38.7031 45.796 40.855 46.119C45.4652 46.8109 50.7054 47.8711 55.2303 49.3773C57.4927 50.1304 59.629 51.0122 61.437 52.0452C63.2227 53.0655 64.8299 54.313 65.8705 55.8618C66.5273 56.8395 66.2599 58.1811 65.2731 58.8583C64.2863 59.5356 62.9539 59.292 62.2971 58.3143C61.7631 57.5195 60.7718 56.6609 59.261 55.7976C57.7726 54.9472 55.9145 54.168 53.8111 53.4678C49.6043 52.0675 44.6267 51.0517 40.1434 50.3789C37.5078 49.9833 34.677 49.0163 32.5013 47.3576C30.2815 45.6653 28.6159 43.1242 28.8887 39.7763C29.0157 38.2177 29.4745 36.5971 30.4866 35.1375C31.8274 33.2038 33.8238 32.4136 35.7028 32.1977C37.5457 31.9858 39.4524 32.2944 41.0386 32.7172Z" fill="black"/>
<path fill-rule="evenodd" clip-rule="evenodd" d="M93.6632 44.5843C92.1394 46.2349 89.1145 47.6711 85.8599 47.2306C85.289 47.1534 84.7209 47.0653 84.1654 46.9705C82.9339 46.7604 81.7243 46.8317 80.3638 47.0345C79.7653 47.1238 79.1664 47.2335 78.5181 47.3523C78.4192 47.3704 78.3192 47.3887 78.2179 47.4072C77.4677 47.5441 76.6607 47.6872 75.8179 47.7958C67.3634 48.8843 55.1736 52.8741 49.2901 55.0824L49.1638 55.1297L16.3451 62.9963L16.2706 63.0087C11.0342 63.8825 6.02812 61.6604 3.96222 57.9659C2.88977 56.048 2.63468 53.726 3.67396 51.4599C4.68365 49.2583 6.7726 47.414 9.77943 46.0181C10.8627 45.5152 12.131 45.9812 12.6123 47.059C13.0936 48.1368 12.6055 49.4182 11.5223 49.9211C9.08979 51.0504 7.9938 52.2713 7.5678 53.2002C7.17141 54.0645 7.2299 54.938 7.71522 55.8059C8.75828 57.6712 11.8124 59.3717 15.5718 58.772L47.9787 51.0041C53.9088 48.7865 66.1714 44.7588 75.0611 43.5619L81.2534 41.0007L81.3752 40.9662C85.2035 39.8821 88.0802 39.2567 90.2094 38.9952C90.9807 38.9004 91.7419 38.8935 92.4316 39.0533C93.1174 39.2122 93.9578 39.5965 94.4689 40.4624C94.9957 41.3547 94.9027 42.2962 94.674 42.9612C94.4515 43.6087 94.0585 44.1561 93.6632 44.5843Z" fill="black"/>
<path fill-rule="evenodd" clip-rule="evenodd" d="M91.4846 75.544C84.8073 75.8334 78.1849 76.6977 73.1729 77.789C71.9193 78.0619 70.3993 78.369 68.9086 78.3597C67.3959 78.3503 65.7484 78.0157 64.3721 76.8545C63.6126 76.2136 63.0743 75.406 62.885 74.4395C62.6988 73.4888 62.8869 72.5718 63.235 71.7673C63.9026 70.2242 65.2977 68.7711 66.8197 67.504C67.0963 67.2737 67.3836 67.0443 67.6801 66.8162C63.8209 67.2788 60.1048 68.1628 57.7434 68.8817C56.8314 69.1594 55.8814 68.6467 55.6215 67.7366C55.3616 66.8265 55.8903 65.8637 56.8023 65.586C59.622 64.7276 64.1845 63.6635 68.7902 63.2407C70.3509 63.0975 71.9358 63.026 73.4728 63.0654C74.9529 62.2344 76.4195 61.4855 77.7401 60.8606C83.0136 57.6204 87.227 56.5306 90.3332 56.9725C93.5797 57.4345 95.564 59.612 95.6925 62.2948C95.8156 64.8664 94.2027 67.4158 91.4026 68.7028C88.5925 69.9944 84.7084 70.0023 80.0045 68.0296L79.8966 67.9844L79.7961 67.9246C78.6765 67.259 77.1182 66.8277 75.2131 66.6288C74.901 66.5962 74.5825 66.5701 74.2586 66.5502C72.3301 67.6738 70.4603 68.9094 68.9834 70.139C67.5666 71.3186 66.7082 72.3338 66.3811 73.0897C66.2319 73.4347 66.2375 73.6249 66.2551 73.7151C66.2697 73.7895 66.3217 73.9566 66.6106 74.2004C67.1785 74.6795 67.9472 74.9077 68.9934 74.9142C70.0616 74.9208 71.2432 74.6969 72.5041 74.4223C79.3865 72.9238 89.0852 71.8519 98.0076 72.0094C102.47 72.0883 106.792 72.4753 110.497 73.2926C114.158 74.1004 117.424 75.3717 119.574 77.3675C121.377 79.042 121.616 81.2943 120.736 83.1951C119.903 84.9942 118.131 86.391 116.027 86.9199C112.773 87.7376 108.429 88.4193 104.12 88.7391C99.8345 89.0571 95.4387 89.0286 92.1338 88.3523C90.4997 88.0178 88.9511 87.4906 87.8224 86.6236C86.6049 85.6885 85.8336 84.3004 86.1019 82.5443C86.3409 80.9804 87.3695 79.4255 88.8802 77.8742C89.5963 77.1388 90.4616 76.3632 91.4846 75.544ZM97.4436 75.4478C94.5805 77.344 92.5996 78.9393 91.3146 80.2588C89.9794 81.6299 89.5691 82.5275 89.4962 83.0047C89.4526 83.2898 89.4965 83.5316 89.9415 83.8734C90.4753 84.2834 91.4365 84.6803 92.8797 84.9756C95.7295 85.5588 99.7586 85.6124 103.93 85.3028C108.078 84.995 112.222 84.3396 115.251 83.5784C116.451 83.2767 117.291 82.5152 117.627 81.791C117.915 81.1685 117.88 80.5325 117.216 79.9165C115.719 78.5266 113.155 77.4206 109.701 76.6585C106.29 75.9061 102.21 75.5309 97.8837 75.4545C97.7372 75.452 97.5905 75.4497 97.4436 75.4478ZM79.2574 63.925C80.0462 64.1767 80.7939 64.4936 81.4793 64.8888C85.5573 66.576 88.3681 66.3343 90.0205 65.5748C91.6966 64.8044 92.3084 63.4864 92.2623 62.5236C92.2392 62.04 92.0572 61.5941 91.7055 61.2334C91.3529 60.8717 90.7548 60.5216 89.7895 60.3842C87.8125 60.1029 84.4181 60.7494 79.4158 63.838L79.3316 63.89L79.2574 63.925Z" fill="black"/>
<path d="M151.251 98.2353C149.56 100.259 146.58 100.554 144.594 98.8956C142.609 97.2367 142.369 94.2515 144.059 92.228C145.75 90.2045 148.73 89.9089 150.716 91.5677C152.702 93.2266 152.941 96.2118 151.251 98.2353Z" fill="black"/>
</svg>
