<svg width="192" height="123" viewBox="0 0 192 123" fill="none" xmlns="http://www.w3.org/2000/svg">
<path d="M44.3752 6.47138C44.1892 9.34756 44.0962 12.1114 44.0962 14.7629C44.0962 17.5042 44.3442 21.5264 44.8403 26.8293C44.9023 27.6382 45.0263 29.2785 45.2123 31.7503C45.3983 34.177 45.4913 36.4016 45.4913 38.4239C46.1114 38.3789 46.7625 38.3115 47.4446 38.2216C48.1887 38.1318 48.7468 38.0868 49.1188 38.0868C50.483 38.0868 51.5681 38.334 52.3742 38.8283C53.1803 39.3227 53.5834 40.0867 53.5834 41.1203C53.5834 41.7944 53.2113 42.3112 52.4673 42.6707C51.7232 43.0302 50.421 43.2999 48.5607 43.4796C46.7625 43.6145 44.1272 43.6819 40.6547 43.6819C36.8102 43.6819 33.9268 43.592 32.0046 43.4122C30.0823 43.2325 28.7492 42.8954 28.0051 42.4011C27.261 41.8618 26.8889 41.0753 26.8889 40.0417C26.8889 39.2777 27.23 38.7609 27.912 38.4913C28.5941 38.2216 29.5553 38.0868 30.7954 38.0868L32.7487 38.1542L35.8181 38.289L35.353 30.3346C34.981 26.0204 34.7949 22.0656 34.7949 18.4704C34.7949 16.538 34.888 13.8865 35.074 10.516L35.26 6.80844C33.1517 6.89832 31.5085 6.94326 30.3304 6.94326C28.9662 6.94326 28.0361 6.7635 27.54 6.40397C27.1059 6.04445 26.8889 5.30294 26.8889 4.17943C26.8889 2.92111 28.0671 2.11218 30.4234 1.75266C32.8417 1.39314 36.5002 1.21338 41.3988 1.21338C45.1813 1.21338 48.0027 1.30326 49.8629 1.48302C51.7852 1.66278 52.7463 2.06724 52.7463 2.69641C52.7463 4.22437 52.2812 5.23553 51.3511 5.72987C50.483 6.17927 48.7778 6.40397 46.2354 6.40397L44.3752 6.47138Z" fill="#B42C1E"/>
<path fill-rule="evenodd" clip-rule="evenodd" d="M46.0493 26.7264L46.0501 26.7366C46.1122 27.5464 46.2362 29.1873 46.4222 31.6584C46.5704 33.5915 46.6606 35.403 46.6921 37.092C46.887 37.0696 47.085 37.0452 47.2861 37.0187L47.2991 37.0169C48.0534 36.9258 48.6708 36.8734 49.1188 36.8734C50.6133 36.8734 51.945 37.1417 53.0086 37.794C54.2129 38.5325 54.7968 39.7118 54.7968 41.1203C54.7968 41.6959 54.6328 42.245 54.2891 42.7224C53.9551 43.1863 53.4965 43.521 52.9951 43.7633C52.0395 44.225 50.5459 44.5069 48.6775 44.6874L48.6645 44.6887L48.6515 44.6896C46.8069 44.8279 44.1352 44.8953 40.6547 44.8953C36.8017 44.8953 33.8722 44.8056 31.8916 44.6203C29.9507 44.4388 28.3492 44.0864 27.3336 43.4118L27.313 43.3981L27.293 43.3836C26.1913 42.5851 25.6755 41.4083 25.6755 40.0417C25.6755 39.4779 25.8029 38.9115 26.132 38.4128C26.4635 37.9104 26.9371 37.572 27.466 37.3629C28.3553 37.0113 29.4933 36.8734 30.7954 36.8734H30.8164L32.8019 36.942L34.5283 37.0178L34.1427 30.4222C33.7692 26.0864 33.5816 22.1019 33.5816 18.4704C33.5816 16.5058 33.6759 13.8298 33.8623 10.4522L33.9816 8.07377C32.4877 8.1288 31.2693 8.15665 30.3304 8.15665C29.6016 8.15665 28.9454 8.10917 28.3794 7.99978C27.826 7.89282 27.2763 7.71142 26.828 7.38647L26.7962 7.36346L26.766 7.33844C25.8764 6.60158 25.6755 5.34323 25.6755 4.17944C25.6755 3.09126 26.219 2.22377 27.0857 1.6287C27.8941 1.07368 28.9871 0.744392 30.2404 0.553166L30.245 0.552466C32.7553 0.179255 36.4872 0 41.3988 0C45.1882 0 48.0569 0.0895893 49.9778 0.275092C50.9753 0.368477 51.8431 0.528023 52.4961 0.802803C53.1009 1.0573 53.9597 1.61738 53.9597 2.69641C53.9597 4.4468 53.4132 6.00801 51.9206 6.80133L51.909 6.8075C51.2895 7.12817 50.4824 7.31947 49.5796 7.43844C48.6613 7.55945 47.5498 7.61671 46.2576 7.61736L45.5195 7.64411C45.3794 10.104 45.3095 12.4769 45.3095 14.7629C45.3095 17.4461 45.5532 21.4229 46.0484 26.7163L46.0493 26.7264ZM44.3752 6.47139C44.1892 9.34756 44.0962 12.1114 44.0962 14.7629C44.0962 17.5042 44.3442 21.5264 44.8403 26.8293C44.9023 27.6382 45.0263 29.2785 45.2123 31.7503C45.3618 33.7 45.4512 35.5193 45.4806 37.208C45.4878 37.6211 45.4913 38.0264 45.4913 38.4239C45.8834 38.3955 46.2878 38.3581 46.7046 38.3117C46.9471 38.2847 47.1938 38.2547 47.4446 38.2216C48.1887 38.1318 48.7468 38.0868 49.1188 38.0868C50.483 38.0868 51.5681 38.334 52.3742 38.8283C53.1803 39.3227 53.5834 40.0867 53.5834 41.1203C53.5834 41.7944 53.2114 42.3112 52.4673 42.6707C51.7232 43.0302 50.421 43.2999 48.5607 43.4796C46.7625 43.6145 44.1272 43.6819 40.6547 43.6819C36.8102 43.6819 33.9268 43.592 32.0046 43.4122C30.0823 43.2325 28.7492 42.8954 28.0051 42.4011C27.261 41.8618 26.8889 41.0753 26.8889 40.0417C26.8889 39.2777 27.23 38.7609 27.9121 38.4913C28.5941 38.2216 29.5553 38.0868 30.7954 38.0868L32.7487 38.1542L35.8181 38.289L35.353 30.3346C34.981 26.0204 34.795 22.0656 34.795 18.4704C34.795 16.538 34.888 13.8865 35.074 10.516L35.26 6.80844C34.8354 6.82655 34.4296 6.84283 34.0427 6.85728C32.5086 6.9146 31.2712 6.94326 30.3304 6.94326C28.9662 6.94326 28.0361 6.7635 27.54 6.40398C27.106 6.04446 26.8889 5.30294 26.8889 4.17944C26.8889 2.92111 28.0671 2.11219 30.4234 1.75267C32.8417 1.39315 36.5002 1.21339 41.3988 1.21339C45.1813 1.21339 48.0027 1.30327 49.8629 1.48303C51.7852 1.66279 52.7463 2.06725 52.7463 2.69641C52.7463 4.22438 52.2812 5.23554 51.3511 5.72988C50.483 6.17928 48.7778 6.40398 46.2354 6.40398L44.3752 6.47139Z" fill="#B42C1E"/>
<path d="M157.644 15.6365C158.172 15.6365 158.814 16.0117 159.569 16.762C160.361 17.4729 160.758 18.085 160.758 18.5983C160.758 21.0073 160.682 24.3048 160.531 28.4908C160.493 29.5175 160.456 30.7615 160.418 32.2227C160.38 33.6443 160.361 35.3029 160.361 37.1985C160.361 43.2011 160.701 47.6241 161.38 50.4674C161.343 51.4152 160.984 52.1063 160.305 52.5407C159.625 52.9356 158.946 53.133 158.267 53.133C156.757 53.133 155.757 52.5801 155.266 51.4744C154.813 50.3687 154.587 48.789 154.587 46.7355C154.587 39.1138 154.662 32.1042 154.813 25.7067C150.473 30.7615 147.095 35.0068 144.68 38.4425C144.68 38.4425 144.34 38.6794 143.661 39.1533C143.019 39.7456 142.491 40.0418 142.076 40.0418C141.094 40.0418 140.283 39.7851 139.641 39.2718C139 38.7584 138.377 38.0081 137.773 37.0208L135.056 32.9927C133.169 30.2284 131.791 28.1354 130.923 26.7137C130.923 30.3468 131.093 35.2832 131.433 41.5227C131.697 45.1164 131.829 47.8215 131.829 49.6381C131.829 50.5859 131.602 51.3954 131.149 52.0668C130.697 52.6986 129.979 53.0145 128.998 53.0145C128.017 53.0145 127.206 52.8171 126.564 52.4222C125.96 52.0273 125.639 51.4349 125.601 50.6451C125.639 49.9738 125.658 48.868 125.658 47.3279C125.658 44.2476 125.564 40.496 125.375 36.073L125.262 32.8743L125.149 28.7277C125.111 27.5035 125.073 26.0818 125.035 24.4627C124.998 22.8041 124.979 21.0073 124.979 19.0722C124.979 16.7028 126.205 15.5181 128.659 15.5181C129.413 15.5181 130.168 15.7155 130.923 16.1104C131.716 16.5053 132.301 17.078 132.678 17.8283C132.98 19.2105 134.093 21.5009 136.018 24.6997C137.943 27.8984 139.83 30.8997 141.679 33.7036C143.34 31.4921 144.699 29.8335 145.755 28.7277C147.567 26.7927 149.058 24.9958 150.228 23.3372C151.435 21.6786 152.738 19.6843 154.134 17.3544C154.474 16.8805 154.964 16.4856 155.606 16.1697C156.247 15.8142 156.927 15.6365 157.644 15.6365Z" fill="#B42C1E"/>
<path d="M108.502 42.2201C108.001 41.5368 107.576 40.7932 107.229 39.9893C106.882 39.1452 106.515 38.1404 106.129 36.9747C106.052 36.7737 105.821 36.1708 105.435 35.1659C105.088 34.1611 104.682 33.2969 104.219 32.5734C101.789 32.9351 99.8017 33.116 98.2583 33.116C97.4095 33.116 96.4642 33.0959 95.4225 33.0557C94.4193 32.9753 93.6669 32.9351 93.1653 32.9351C91.2361 32.7743 89.6928 32.6939 88.5353 32.6939C88.0723 33.3371 87.6672 34.0204 87.3199 34.7439C87.0112 35.4674 86.6061 36.5527 86.1045 37.9997C85.41 40.0898 84.812 41.577 84.3104 42.4613C83.9631 43.0642 83.2879 43.3657 82.2848 43.3657C81.4359 43.3657 80.645 43.1848 79.9119 42.8231C79.2174 42.4211 78.8701 41.8785 78.8701 41.1952C79.1788 39.6678 79.6611 38.06 80.317 36.3718C81.0115 34.6434 81.9954 32.3523 83.2686 29.4984L85.5837 23.5898C86.8569 20.2134 88.0144 17.3194 89.0562 14.9077C90.1365 12.496 91.5448 9.64213 93.2811 6.34614C93.5126 5.8638 93.8984 5.46185 94.4386 5.14029C94.9787 4.77853 95.5768 4.59766 96.2327 4.59766C96.9658 4.59766 97.4867 4.65795 97.7953 4.77853C98.1426 4.85893 98.4127 5.01971 98.6056 5.26088C98.7985 5.46185 99.0879 5.90399 99.4737 6.58731C100.786 8.71764 101.904 10.9083 102.83 13.1592C103.795 15.4101 105.01 18.5252 106.477 22.5045L107.692 25.7C108.772 28.5941 109.698 31.0258 110.47 32.9954C111.28 34.9248 112.168 36.6933 113.132 38.3011C113.75 39.3462 114.058 40.0697 114.058 40.4717C114.058 41.4363 113.769 42.1799 113.19 42.7025C112.65 43.1848 111.936 43.426 111.049 43.426C109.93 43.426 109.081 43.024 108.502 42.2201ZM102.541 27.6294C101.924 26.2627 101.036 23.8912 99.8788 20.5149C98.6828 16.8973 97.4867 14.0234 96.2906 11.893C95.5575 13.8224 94.4772 16.3145 93.0496 19.3693C92.085 21.2585 90.9853 23.9917 89.7507 27.5691C92.22 27.8906 94.8823 28.0514 97.7375 28.0514C99.7824 28.0514 101.384 27.9107 102.541 27.6294Z" fill="#B42C1E"/>
<path fill-rule="evenodd" clip-rule="evenodd" d="M107.692 25.7C108.772 28.5941 109.698 31.0259 110.47 32.9954C111.28 34.9248 112.168 36.6933 113.132 38.3011C113.75 39.3462 114.058 40.0697 114.058 40.4717C114.058 41.4363 113.769 42.18 113.19 42.7025C112.65 43.1848 111.936 43.426 111.049 43.426C109.93 43.426 109.081 43.024 108.502 42.2202C108.001 41.5368 107.576 40.7932 107.229 39.9893C106.882 39.1452 106.515 38.1404 106.129 36.9747L105.435 35.1659C105.088 34.1611 104.683 33.2969 104.22 32.5734C101.789 32.9351 99.8017 33.116 98.2583 33.116C97.4095 33.116 96.4642 33.0959 95.4225 33.0557C94.4193 32.9753 93.6669 32.9351 93.1653 32.9351C91.2361 32.7743 89.6928 32.6939 88.5353 32.6939C88.0723 33.3371 87.6672 34.0204 87.3199 34.7439C87.0112 35.4674 86.6061 36.5527 86.1045 37.9997C85.41 40.0898 84.812 41.577 84.3104 42.4613C83.9631 43.0643 83.2879 43.3657 82.2848 43.3657C81.4359 43.3657 80.645 43.1848 79.9119 42.8231C79.2174 42.4211 78.8701 41.8785 78.8701 41.1952C79.1788 39.6678 79.6611 38.06 80.317 36.3718C81.0115 34.6434 81.9954 32.3523 83.2686 29.4984L85.5837 23.5898C86.8569 20.2134 88.0144 17.3194 89.0562 14.9077C90.1365 12.496 91.5448 9.64213 93.2811 6.34615C93.5126 5.86381 93.8984 5.46185 94.4386 5.14029C94.9787 4.77854 95.5768 4.59766 96.2327 4.59766C96.9658 4.59766 97.4867 4.65796 97.7953 4.77854C98.1426 4.85893 98.4127 5.01971 98.6056 5.26088C98.7985 5.46186 99.0879 5.904 99.4737 6.58732C100.786 8.71765 101.904 10.9083 102.83 13.1592C103.795 15.4101 105.01 18.5252 106.477 22.5045L107.692 25.7ZM107.613 22.0791L108.829 25.2757C109.905 28.1593 110.827 30.58 111.594 32.539C112.383 34.4159 113.243 36.1277 114.173 37.6769L114.177 37.684C114.5 38.2304 114.76 38.7226 114.943 39.1514C115.112 39.5473 115.272 40.0157 115.272 40.4717C115.272 41.6919 114.895 42.7976 114.003 43.6031L113.998 43.6076C113.188 44.3308 112.164 44.6394 111.049 44.6394C109.6 44.6394 108.36 44.0958 107.521 42.9339C106.965 42.1758 106.497 41.3538 106.115 40.4705L106.111 40.4608L106.107 40.451C105.749 39.58 105.375 38.556 104.986 37.3832L104.295 35.5817L104.288 35.5622C104.071 34.9336 103.834 34.3779 103.58 33.8908C101.48 34.18 99.7019 34.3294 98.2583 34.3294C97.3909 34.3294 96.4297 34.3088 95.3757 34.2682L95.3506 34.2672L95.3255 34.2652C94.3294 34.1854 93.6165 34.1485 93.1653 34.1485H93.1148L93.0645 34.1443C91.4936 34.0134 90.198 33.9378 89.1709 33.9148C88.8969 34.3396 88.6484 34.7828 88.4254 35.2449C88.1353 35.9279 87.7456 36.9706 87.2535 38.3899C86.557 40.4854 85.9293 42.0666 85.3658 43.06L85.3619 43.0669C84.7098 44.1991 83.51 44.5791 82.2848 44.5791C81.2571 44.5791 80.2815 44.3586 79.3749 43.9112L79.3389 43.8934L79.3041 43.8733C78.3124 43.2993 77.6567 42.3943 77.6567 41.1952V41.0738L77.6808 40.9548C78.0052 39.3497 78.5089 37.675 79.186 35.9323L79.191 35.9193C79.8916 34.1759 80.8787 31.8777 82.1491 29.0297L84.4511 23.1544C85.7277 19.7693 86.8915 16.8591 87.9423 14.4265L87.9487 14.4116C89.0409 11.9735 90.4585 9.10147 92.198 5.7987C92.5461 5.08576 93.1017 4.52996 93.7905 4.11411C94.5255 3.62924 95.3495 3.38428 96.2327 3.38428C96.9387 3.38428 97.623 3.43275 98.1502 3.61635C98.6727 3.75211 99.1527 4.02274 99.5192 4.46146C99.8215 4.79167 100.162 5.33944 100.519 5.97059C101.857 8.14638 103.001 10.3861 103.949 12.6894C104.925 14.9667 106.147 18.0996 107.613 22.0791ZM98.7268 20.8958C97.947 18.5372 97.1741 16.52 96.4105 14.836C95.7864 16.3102 95.032 17.9932 94.1488 19.883L94.1399 19.9022L94.1302 19.9211C93.3321 21.4842 92.4215 23.6832 91.3992 26.5377C93.385 26.7375 95.4975 26.838 97.7375 26.838C98.9552 26.838 99.9827 26.7866 100.83 26.6907C100.263 25.267 99.5629 23.3348 98.731 20.9084L98.7268 20.8958ZM102.059 26.4952C102.235 26.9291 102.396 27.3072 102.541 27.6294C102.176 27.7181 101.767 27.7929 101.313 27.8537C100.329 27.9855 99.1373 28.0514 97.7375 28.0514C95.3517 28.0514 93.1007 27.9392 90.9843 27.7147C90.5679 27.6705 90.1567 27.622 89.7507 27.5691C89.889 27.1682 90.0257 26.7779 90.1607 26.3982C91.2301 23.3897 92.1931 21.0468 93.0496 19.3693C94.1363 17.0439 95.0218 15.0445 95.7061 13.3712C95.9207 12.8464 96.1156 12.3537 96.2906 11.8931C96.5393 12.3359 96.7879 12.811 97.0366 13.3181C97.984 15.2505 98.9314 17.6494 99.8789 20.5149C100.763 23.0952 101.49 25.0886 102.059 26.4952Z" fill="#B42C1E"/>
<path d="M28.4344 55.7315C28.8747 55.7315 29.4093 56.2761 30.0384 57.3653C30.6988 58.3972 31.0291 59.2857 31.0291 60.0309C31.0291 63.5278 30.9662 68.3144 30.8404 74.3909C30.8089 75.8814 30.7775 77.6871 30.746 79.8082C30.7146 81.8719 30.6988 84.2795 30.6988 87.0312C30.6988 95.7446 30.9819 102.165 31.548 106.292C31.5166 107.668 31.2178 108.671 30.6517 109.302C30.0855 109.875 29.5194 110.162 28.9533 110.162C27.6952 110.162 26.8618 109.359 26.4529 107.754C26.0755 106.149 25.8868 103.856 25.8868 100.875C25.8868 89.8114 25.9497 79.6362 26.0755 70.3495C22.4586 77.6871 19.6438 83.8496 17.6309 88.8369C17.6309 88.8369 17.3478 89.1809 16.7817 89.8688C16.247 90.7286 15.8067 91.1586 15.4608 91.1586C14.643 91.1586 13.9668 90.786 13.4322 90.0407C12.8975 89.2955 12.3785 88.2063 11.8753 86.7732L9.61084 80.926C8.03828 76.9132 6.89031 73.875 6.16694 71.8113C6.16694 77.0852 6.30847 84.2509 6.59153 93.3083C6.81168 98.5249 6.92176 102.452 6.92176 105.089C6.92176 106.464 6.73306 107.64 6.35564 108.614C5.97823 109.531 5.38066 109.99 4.56293 109.99C3.7452 109.99 3.069 109.703 2.53433 109.13C2.03111 108.557 1.76377 107.697 1.73232 106.55C1.76377 105.576 1.7795 103.971 1.7795 101.735C1.7795 97.2637 1.70087 91.8178 1.54362 85.3974L1.44926 80.754L1.35491 74.7349C1.32346 72.9578 1.29201 70.8941 1.26056 68.5437C1.2291 66.1361 1.21338 63.5278 1.21338 60.7188C1.21338 57.2793 2.23554 55.5596 4.27987 55.5596C4.90889 55.5596 5.53791 55.8462 6.16694 56.4195C6.82741 56.9927 7.3149 57.8239 7.62941 58.9131C7.88102 60.9195 8.80883 64.2444 10.4128 68.8877C12.0168 73.531 13.5894 77.8878 15.1305 81.9579C16.5144 78.7477 17.6466 76.34 18.5272 74.7349C20.0369 71.9259 21.2792 69.3176 22.2542 66.91C23.2606 64.5023 24.3457 61.6074 25.5094 58.2252C25.7925 57.5373 26.2013 56.964 26.736 56.5054C27.2707 55.9895 27.8368 55.7315 28.4344 55.7315Z" fill="#B42C1E"/>
<path fill-rule="evenodd" clip-rule="evenodd" d="M1.44927 80.754L1.35492 74.7349C1.32346 72.9578 1.29201 70.8941 1.26056 68.5438C1.22911 66.1361 1.21339 63.5278 1.21339 60.7189C1.21339 57.2793 2.23555 55.5596 4.27987 55.5596C4.9089 55.5596 5.53792 55.8462 6.16694 56.4195C6.82742 56.9927 7.31491 57.8239 7.62942 58.9131C7.88103 60.9195 8.80884 64.2444 10.4128 68.8877C11.8045 72.9163 13.1725 76.7292 14.5168 80.3263C14.7219 80.8752 14.9265 81.419 15.1305 81.9579C15.37 81.4024 15.6019 80.8709 15.8263 80.3634C16.8987 77.9384 17.799 76.0622 18.5272 74.7349C20.0369 71.926 21.2792 69.3176 22.2542 66.91C23.2606 64.5023 24.3457 61.6074 25.5094 58.2252C25.7925 57.5373 26.2013 56.964 26.736 56.5054C27.2707 55.9895 27.8368 55.7316 28.4344 55.7316C28.8747 55.7316 29.4093 56.2761 30.0384 57.3653C30.6988 58.3972 31.0291 59.2857 31.0291 60.0309C31.0291 63.5278 30.9662 68.3145 30.8404 74.3909C30.8089 75.8814 30.7775 77.6871 30.746 79.8082C30.7146 81.8719 30.6988 84.2795 30.6988 87.0312C30.6988 95.7446 30.9819 102.165 31.548 106.292C31.5166 107.668 31.2178 108.671 30.6517 109.302C30.0855 109.875 29.5194 110.162 28.9533 110.162C27.6953 110.162 26.8618 109.359 26.4529 107.754C26.0755 106.149 25.8868 103.856 25.8868 100.875C25.8868 90.9257 25.9377 81.6948 26.0394 73.1825C26.0508 72.2291 26.0629 71.2848 26.0755 70.3495C25.649 71.2148 25.2336 72.0638 24.8294 72.8964C21.8059 79.1242 19.4064 84.4377 17.6309 88.8369L16.7817 89.8688C16.247 90.7286 15.8067 91.1586 15.4608 91.1586C14.643 91.1586 13.9668 90.786 13.4322 90.0407C12.8975 89.2955 12.3785 88.2063 11.8753 86.7732L9.61084 80.926C8.74389 78.7138 8.00599 76.7977 7.39713 75.1779C6.90158 73.8595 6.49152 72.7373 6.16694 71.8113C6.16694 72.9245 6.17325 74.122 6.18586 75.4038C6.23299 80.1945 6.36822 86.1627 6.59153 93.3083C6.81169 98.5249 6.92177 102.452 6.92177 105.089C6.92177 106.464 6.73306 107.64 6.35565 108.614C5.97824 109.531 5.38066 109.99 4.56293 109.99C3.7452 109.99 3.069 109.703 2.53433 109.13C2.03112 108.557 1.76378 107.697 1.73233 106.55C1.76378 105.576 1.77951 103.971 1.77951 101.735C1.77951 97.2637 1.70088 91.8178 1.54362 85.3974L1.44927 80.754ZM7.80412 93.2638C8.02426 98.4811 8.13515 102.426 8.13515 105.089C8.13515 106.569 7.93282 107.902 7.48714 109.052L7.48257 109.064L7.47775 109.076C7.23269 109.671 6.87717 110.214 6.36314 110.609C5.83394 111.015 5.21465 111.203 4.56293 111.203C3.42511 111.203 2.4221 110.789 1.647 109.958L1.63452 109.944L1.62245 109.931C0.8585 109.06 0.554855 107.876 0.5194 106.584L0.518407 106.547L0.519575 106.511C0.55034 105.558 0.566121 103.97 0.566121 101.735C0.566121 97.2769 0.487709 91.8415 0.330601 85.4271L0.330477 85.422L0.23602 80.7731L0.14172 74.7564C0.141713 74.756 0.141705 74.7555 0.141698 74.7551C0.110215 72.9761 0.0787457 70.911 0.0472855 68.56C0.0157551 66.1463 0 63.5322 0 60.7189C0 58.9186 0.260457 57.3676 0.936953 56.2294C1.67254 54.9918 2.84121 54.3462 4.27987 54.3462C5.29962 54.3462 6.20333 54.8142 6.97355 55.5129C7.85003 56.2783 8.43624 57.3334 8.79518 58.5765L8.82155 58.6678L8.83338 58.7621C9.06756 60.6295 9.95532 63.847 11.5597 68.4915C12.7998 72.0812 14.0205 75.498 15.222 78.7421C16.0836 76.8369 16.8304 75.3056 17.4609 74.1558C18.9532 71.379 20.1747 68.8124 21.1295 66.4545L21.1346 66.442C22.1281 64.0654 23.204 61.1963 24.362 57.8304L24.3737 57.7966L24.3873 57.7635C24.7345 56.9197 25.2443 56.1938 25.9193 55.6075C26.6173 54.9434 27.4623 54.5182 28.4344 54.5182C29.1502 54.5182 29.6918 54.944 30.0314 55.2899C30.3965 55.6617 30.7423 56.1607 31.0753 56.7346C31.7799 57.8408 32.2425 58.9562 32.2425 60.0309C32.2425 63.5401 32.1794 68.3363 32.0535 74.4161C32.0221 75.9032 31.9907 77.7067 31.9593 79.8262C31.9279 81.8821 31.9122 84.2838 31.9122 87.0312C31.9122 95.7354 32.1959 102.087 32.7502 106.128L32.7633 106.223L32.7611 106.32C32.7269 107.817 32.4032 109.167 31.5546 110.113L31.5353 110.134L31.515 110.155C30.8184 110.86 29.9603 111.375 28.9533 111.375C28.0404 111.375 27.2066 111.073 26.543 110.434C25.9079 109.822 25.5145 108.986 25.2771 108.054L25.2743 108.043L25.2718 108.032C24.8623 106.291 24.6734 103.888 24.6734 100.875C24.6734 91.9227 24.7146 83.5508 24.797 75.7596C22.3059 80.973 20.2932 85.4826 18.7561 89.291L18.6863 89.464L18.5678 89.608L17.7683 90.5795C17.4912 91.0179 17.2023 91.4073 16.8982 91.7043C16.6129 91.9829 16.121 92.372 15.4608 92.372C14.2001 92.372 13.1768 91.7663 12.4463 90.7481C11.8174 89.8716 11.2551 88.6659 10.7369 87.1936L8.48111 81.3688C8.48083 81.368 8.48055 81.3673 8.48028 81.3666C8.11136 80.4252 7.7655 79.5367 7.44273 78.7011C7.50951 82.8349 7.62991 87.6887 7.80412 93.2638Z" fill="#B42C1E"/>
<path d="M52.5962 65.7421C52.3084 67.2446 51.8888 69.2321 51.3373 71.7046L50.3134 76.7454C49.3707 81.6674 48.8451 85.8367 48.7366 89.2534C48.5957 94.0604 49.0343 97.8774 50.0525 100.704C51.0174 103.199 52.5153 104.64 54.5462 105.029C56.1258 105.332 57.6602 104.954 59.1494 103.897C60.6485 102.787 61.9251 101.313 62.9791 99.4739C64.7226 96.4777 66.0458 92.6223 66.9488 87.9075C67.4946 85.0579 68.008 81.6651 68.4889 77.7288C69.0968 73.3335 69.6091 70.0479 70.0258 67.8718C70.2442 66.732 70.872 66.1003 71.9094 65.9767C72.9567 65.8013 74.0069 65.8145 75.06 66.0162C75.4361 66.0882 75.8041 66.5078 76.164 67.275C76.5239 68.0421 76.6295 68.8143 76.4806 69.5915C76.1829 71.1458 75.8437 72.6116 75.463 73.9889C75.0901 75.5288 74.8441 76.6096 74.725 77.2313C74.3479 79.2001 73.8972 81.9605 73.3729 85.5124C73.2418 86.4004 73.076 87.4697 72.8755 88.7203C72.6749 89.971 72.4209 91.3994 72.1132 93.0055C71.4385 96.5286 70.1432 99.9329 68.2273 103.218C66.359 106.459 64.1158 109.01 61.4978 110.872C58.8898 112.682 56.213 113.325 53.4675 112.799C49.2552 111.992 46.3216 109.496 44.6667 105.312C43.0216 101.076 42.3372 95.8965 42.6133 89.7726C42.7793 86.2594 43.1443 82.6233 43.7083 78.8641C44.3099 75.1122 45.2111 70.1016 46.4117 63.8326C46.5705 63.0036 47.0014 62.2805 47.7045 61.6632C48.4452 61.0531 49.154 60.8129 49.831 60.9425C52.2004 61.3963 53.1221 62.9962 52.5962 65.7421Z" fill="#B42C1E"/>
<path d="M104.351 99.5438C104.351 101.999 103.96 104.114 103.178 105.89C102.432 107.613 101.188 109.206 99.4469 110.669C98.2741 111.713 96.9059 112.497 95.3422 113.019C93.7785 113.541 92.1971 113.803 90.5978 113.803C88.963 113.803 86.9374 113.019 84.5207 111.452C82.7794 110.199 81.3933 108.71 80.3627 106.987C79.3677 105.263 78.8701 103.383 78.8701 101.346C78.8701 99.9355 79.0833 98.917 79.5098 98.2903C79.9363 97.6113 80.6293 97.2718 81.5888 97.2718C82.0864 97.2718 82.6017 97.5852 83.1347 98.2119C83.6678 98.7865 83.9877 99.361 84.0943 99.9355C84.5918 102.077 85.4625 103.722 86.7064 104.871C87.9502 105.968 89.4961 106.516 91.3441 106.516C93.4764 106.516 95.2534 105.942 96.6749 104.793C98.132 103.644 98.8605 102.103 98.8605 100.171C98.8605 98.2903 98.0787 96.6189 96.515 95.1565C94.9513 93.6941 93.3521 92.6756 91.7173 92.1011C89.3717 91.1609 87.2927 90.038 85.4803 88.7322C83.5967 87.3743 82.193 85.7029 81.269 83.7182C80.345 81.7335 79.883 79.6443 79.883 77.4506C79.883 75.4137 80.3627 73.3506 81.3223 71.2614C82.2818 69.12 83.419 67.5792 84.734 66.6391C85.4447 66.1168 86.653 65.5684 88.3589 64.9938C90.1003 64.3671 91.3619 64.0537 92.1437 64.0537C93.1744 64.0537 94.3116 64.2365 95.5554 64.6021C96.7993 64.9677 97.8121 65.49 98.594 66.169C100.158 67.4748 101.313 68.6499 102.059 69.6945C102.805 70.7391 103.178 72.0449 103.178 73.6117C103.178 74.5519 102.93 75.3876 102.432 76.1188C101.97 76.85 101.153 77.2156 99.98 77.2156C99.6957 77.2156 99.4114 77.0328 99.1271 76.6672C98.8427 76.3016 98.4874 75.7532 98.0609 75.022C97.4923 73.9251 96.9414 73.1939 96.4084 72.8283C95.8753 72.5672 95.0934 72.2799 94.0628 71.9665C93.0677 71.6531 92.1793 71.4964 91.3974 71.4964C90.5445 71.4964 89.656 71.7576 88.732 72.2799C87.808 72.8022 87.0262 73.5595 86.3865 74.5519C85.7824 75.492 85.4803 76.5888 85.4803 77.8424C85.4803 78.8869 85.8001 79.801 86.4398 80.5844C87.115 81.3156 87.9147 81.9163 88.8387 82.3863C89.9048 83.0131 91.0598 83.5615 92.3037 84.0316C93.9384 84.7628 95.2711 85.4418 96.3017 86.0685C97.3679 86.6431 98.3985 87.3743 99.3936 88.2622C101.135 89.7768 102.397 91.3437 103.178 92.9629C103.96 94.5297 104.351 96.7234 104.351 99.5438Z" fill="#B42C1E"/>
<path d="M130.416 74.0035C130.28 77.4549 130.213 80.7714 130.213 83.9532C130.213 87.2428 130.393 92.0694 130.754 98.433C130.799 99.4037 130.889 101.372 131.025 104.338C131.16 107.25 131.228 109.92 131.228 112.346C131.678 112.293 132.152 112.212 132.648 112.104C133.189 111.996 133.595 111.942 133.866 111.942C134.858 111.942 135.647 112.239 136.233 112.832C136.82 113.425 137.113 114.342 137.113 115.582C137.113 116.391 136.842 117.011 136.301 117.443C135.76 117.874 134.813 118.198 133.46 118.413C132.152 118.575 130.235 118.656 127.71 118.656C124.914 118.656 122.817 118.548 121.419 118.332C120.021 118.117 119.051 117.712 118.51 117.119C117.969 116.472 117.698 115.528 117.698 114.288C117.698 113.371 117.947 112.751 118.443 112.427C118.939 112.104 119.638 111.942 120.54 111.942L121.96 112.023L124.192 112.185L123.854 102.639C123.584 97.4622 123.448 92.7166 123.448 88.4023C123.448 86.0834 123.516 82.9016 123.651 78.857L123.787 74.4079C122.253 74.5158 121.058 74.5697 120.201 74.5697C119.209 74.5697 118.533 74.354 118.172 73.9226C117.856 73.4911 117.698 72.6013 117.698 71.2531C117.698 69.7431 118.555 68.7724 120.269 68.341C122.028 67.9096 124.688 67.6938 128.251 67.6938C131.002 67.6938 133.054 67.8017 134.407 68.0174C135.805 68.2331 136.504 68.7185 136.504 69.4735C136.504 71.307 136.166 72.5204 135.489 73.1136C134.858 73.6529 133.618 73.9226 131.769 73.9226L130.416 74.0035Z" fill="#B42C1E"/>
<path d="M187.596 91.818C187.921 92.6463 188.125 93.2932 188.208 93.7588C188.291 94.2245 188.271 94.634 188.147 94.9874C187.998 95.4115 187.532 95.8038 186.749 96.1643C186.003 96.5376 185.356 96.6281 184.808 96.436C184.077 96.1797 183.53 95.8687 183.166 95.503C182.802 95.1372 182.554 94.6733 182.423 94.1114C182.136 93.0583 181.677 92.084 181.048 91.1885C180.431 90.2577 179.227 89.4784 177.437 88.8507C175.902 88.3127 174.031 88.0335 171.823 88.0132C169.651 88.0057 167.971 88.3494 166.784 89.0443C165.744 89.6716 164.633 90.7904 163.453 92.4006C162.31 94.0237 161.441 95.6834 160.846 97.3797C160.127 99.4295 159.921 101.48 160.227 103.532C160.582 105.562 161.456 107.397 162.851 109.036C164.281 110.689 166.239 111.951 168.723 112.822C170.075 113.296 171.55 113.535 173.148 113.54C174.796 113.523 176.354 113.116 177.822 112.322L177.767 112.302C178.66 111.862 179.6 111.814 180.586 112.16C181.171 112.365 181.632 112.804 181.97 113.479C182.345 114.165 182.445 114.756 182.272 115.251C182.086 115.781 181.827 116.226 181.496 116.586C181.213 116.924 180.766 117.263 180.154 117.604C178.086 118.705 175.924 119.197 173.668 119.08C171.411 118.963 168.858 118.405 166.008 117.406C163.487 116.522 161.134 115.042 158.949 112.967C156.801 110.903 155.324 108.798 154.518 106.65C154.147 105.369 153.949 103.653 153.924 101.501C153.948 99.3264 154.17 97.6384 154.592 96.4368C155.67 93.3622 157.167 90.6131 159.084 88.1895C161.049 85.7435 163.291 84.0294 165.81 83.0474C167.485 82.3648 169.628 82.1636 172.237 82.4436C174.847 82.7237 177.156 83.216 179.165 83.9206C181.613 84.779 183.414 85.7873 184.566 86.9456C185.768 88.0813 186.778 89.7055 187.596 91.818Z" fill="#B42C1E"/>
</svg>
