<svg width="27" height="40" viewBox="0 0 27 40" fill="none" xmlns="http://www.w3.org/2000/svg">
<path d="M19.6364 30C20.3727 27.5078 21.8991 25.3828 23.4102 23.2656C23.8091 22.7109 24.208 22.1562 24.5915 21.5938C26.1102 19.3672 27 16.6719 27 13.7578C27 6.15625 20.9557 0 13.5 0C6.04432 0 0 6.15625 0 13.75C0 16.6641 0.889773 19.3672 2.40852 21.5859C2.79205 22.1484 3.19091 22.7031 3.58977 23.2578C5.10852 25.375 6.63494 27.5078 7.36364 29.9922H19.6364V30ZM13.5 40C16.8903 40 19.6364 37.2031 19.6364 33.75V32.5H7.36364V33.75C7.36364 37.2031 10.1097 40 13.5 40ZM7.36364 13.75C7.36364 14.4375 6.81136 15 6.13636 15C5.46136 15 4.90909 14.4375 4.90909 13.75C4.90909 8.91406 8.75199 5 13.5 5C14.175 5 14.7273 5.5625 14.7273 6.25C14.7273 6.9375 14.175 7.5 13.5 7.5C10.1097 7.5 7.36364 10.2969 7.36364 13.75Z" fill="black"/>
</svg>
