<svg width="274" height="133" viewBox="0 0 274 133" fill="none" xmlns="http://www.w3.org/2000/svg">
<path d="M238.893 133V86H273.893V92.6769H248.144V104.263H273.893V110.875H248.144V126.258H273.893V133H238.893Z" fill="#B42C1E"/>
<path d="M174.893 133V86H181.293L213.966 119.384V86H222.893V133H216.493L183.819 99.7465V133H174.893Z" fill="#B42C1E"/>
<path d="M121.893 86H131.321L144.054 104.525L156.545 86H165.893L148.244 111.66V133H139.702V111.66L121.893 86Z" fill="#B42C1E"/>
<path d="M95.0101 86H101.861L127.893 133H118.473L111.708 120.563H85.1625L78.312 133H68.8926L95.0101 86ZM88.8447 113.886H108.026L98.4354 96.2772L88.8447 113.886Z" fill="#B42C1E"/>
<path d="M-4.76837e-06 86H9.72431L18.3879 112.38C18.6682 113.384 18.9766 114.409 19.3131 115.457C19.6495 116.461 19.958 117.464 20.2383 118.468C20.6869 117.464 21.1075 116.461 21.5 115.457C21.8925 114.453 22.2851 113.449 22.6776 112.446L34.1168 86H39.6682L51.1916 112.38C51.5841 113.384 51.9766 114.409 52.3692 115.457C52.7617 116.461 53.1822 117.464 53.6308 118.468C53.9673 117.464 54.2757 116.461 54.5561 115.457C54.8364 114.409 55.1449 113.384 55.4813 112.38L64.0608 86H72.8925L57.5841 133H51.1916L38.8271 104.721L36.8084 99.7465C36.472 100.619 36.1355 101.47 35.7991 102.299C35.4626 103.085 35.1262 103.892 34.7897 104.721L22.5094 133H15.3925L-4.76837e-06 86Z" fill="#B42C1E"/>
<path d="M161.893 0H170.893V74H161.893V0Z" fill="#B42C1E"/>
<path d="M131.893 19H140.893V74H131.893V19Z" fill="#B42C1E"/>
<path d="M131.893 0H140.893V9H131.893V0Z" fill="#B42C1E"/>
<path d="M101.893 0H110.893V74H101.893V0Z" fill="#B42C1E"/>
</svg>
