<svg width="27" height="40" viewBox="0 0 27 40" fill="none" xmlns="http://www.w3.org/2000/svg">
<path d="M13.5 -0.00012207C9.43466 -0.00012207 6.13636 3.35925 6.13636 7.49988V19.9999C6.13636 24.1405 9.43466 27.4999 13.5 27.4999C17.5653 27.4999 20.8636 24.1405 20.8636 19.9999V7.49988C20.8636 3.35925 17.5653 -0.00012207 13.5 -0.00012207ZM3.68182 16.8749C3.68182 15.8358 2.86108 14.9999 1.84091 14.9999C0.820739 14.9999 0 15.8358 0 16.8749V19.9999C0 26.9608 5.07784 32.7108 11.6591 33.6249V36.2499H7.97727C6.9571 36.2499 6.13636 37.0858 6.13636 38.1249C6.13636 39.1639 6.9571 39.9999 7.97727 39.9999H13.5H19.0227C20.0429 39.9999 20.8636 39.1639 20.8636 38.1249C20.8636 37.0858 20.0429 36.2499 19.0227 36.2499H15.3409V33.6249C21.9222 32.7108 27 26.9608 27 19.9999V16.8749C27 15.8358 26.1793 14.9999 25.1591 14.9999C24.1389 14.9999 23.3182 15.8358 23.3182 16.8749V19.9999C23.3182 25.5233 18.923 29.9999 13.5 29.9999C8.07699 29.9999 3.68182 25.5233 3.68182 19.9999V16.8749Z" fill="black"/>
</svg>
