<svg width="40" height="40" viewBox="0 0 40 40" fill="none" xmlns="http://www.w3.org/2000/svg">
<path d="M38.9922 0.496232C39.625 0.964933 40 1.71485 40 2.50383V8.12824V28.7511C40 32.2038 36.6406 35.0004 32.5 35.0004C28.3594 35.0004 25 32.2038 25 28.7511C25 25.2983 28.3594 22.5017 32.5 22.5017C33.375 22.5017 34.2188 22.6267 35 22.8611V11.4873L15 17.4866V33.7505C15 37.2033 11.6406 39.9999 7.5 39.9999C3.35938 39.9999 0 37.2033 0 33.7505C0 30.2978 3.35938 27.5012 7.5 27.5012C8.375 27.5012 9.21875 27.6262 10 27.8605V15.6274V10.003C10 8.9016 10.7266 7.92514 11.7812 7.60486L36.7812 0.105648C37.5391 -0.12089 38.3594 0.0197199 38.9922 0.496232Z" fill="black"/>
</svg>
