<svg width="114" height="114" viewBox="0 0 114 114" fill="none" xmlns="http://www.w3.org/2000/svg">
<path d="M103.882 31.2262C107.267 37.3829 109.406 44.1459 110.177 51.1292C110.948 58.1125 110.336 65.1793 108.376 71.926C106.416 78.6728 103.146 84.9674 98.753 90.4505C94.3602 95.9336 88.9305 100.498 82.7738 103.882C76.6171 107.267 69.8541 109.406 62.8708 110.177C55.8875 110.948 48.8207 110.336 42.074 108.376C35.3272 106.416 29.0326 103.146 23.5495 98.753C18.0664 94.3602 13.5023 88.9305 10.1176 82.7738C6.73292 76.6171 4.59405 69.8541 3.82309 62.8708C3.05213 55.8875 3.66417 48.8207 5.62429 42.074C7.5844 35.3272 10.8542 29.0326 15.247 23.5495C19.6398 18.0664 25.0695 13.5023 31.2262 10.1176C37.3829 6.73292 44.1459 4.59405 51.1292 3.82309C58.1125 3.05213 65.1793 3.66418 71.926 5.62429C78.6728 7.5844 84.9674 10.8542 90.4505 15.247C95.9336 19.6398 100.498 25.0695 103.882 31.2262L103.882 31.2262Z" stroke="#DDA09A" stroke-width="7" stroke-linecap="round"/>
<path d="M103.882 31.2262C110.074 42.4884 112.004 55.603 109.321 68.1715C106.637 80.7401 99.5186 91.9226 89.2674 99.6739C79.0162 107.425 66.3173 111.227 53.4931 110.385C40.6688 109.542 28.5764 104.112 19.4273 95.086C10.2782 86.0602 4.68395 74.0426 3.66757 61.231C2.65118 48.4194 6.28064 35.67 13.8922 25.3146C21.5037 14.9592 32.5886 7.68973 45.1196 4.83579C57.6505 1.98185 70.7901 3.73413 82.1353 9.77217" stroke="#B42C1E" stroke-width="7" stroke-linecap="round"/>
</svg>
