<svg width="260" height="9" viewBox="0 0 260 9" fill="none" xmlns="http://www.w3.org/2000/svg">
<path fill-rule="evenodd" clip-rule="evenodd" d="M4.51737 0H0V4.5V9H4.51737C2.0225 9 0 6.98528 0 4.5C0 2.01472 2.0225 0 4.51737 0ZM42.6641 0C45.159 0 47.1815 2.01472 47.1815 4.5C47.1815 6.98528 45.159 9 42.6641 9H57.722C55.2271 9 53.2046 6.98528 53.2046 4.5C53.2046 2.01472 55.2271 0 57.722 0H42.6641ZM95.8687 0C98.3636 0 100.386 2.01472 100.386 4.5C100.386 6.98528 98.3636 9 95.8687 9H110.927C108.432 9 106.409 6.98528 106.409 4.5C106.409 2.01472 108.432 0 110.927 0H95.8687ZM149.073 0C151.568 0 153.591 2.01472 153.591 4.5C153.591 6.98528 151.568 9 149.073 9H164.131C161.636 9 159.614 6.98528 159.614 4.5C159.614 2.01472 161.636 0 164.131 0H149.073ZM202.278 0C204.773 0 206.795 2.01472 206.795 4.5C206.795 6.98528 204.773 9 202.278 9H217.336C214.841 9 212.819 6.98528 212.819 4.5C212.819 2.01472 214.841 0 217.336 0H202.278ZM255.483 0C257.978 0 260 2.01472 260 4.5C260 6.98528 257.978 9 255.483 9H260V4.5V0H255.483Z" fill="#F5F5F5"/>
</svg>
