<svg width="40" height="40" viewBox="0 0 40 40" fill="none" xmlns="http://www.w3.org/2000/svg">
<path d="M4.50781 15.0781L5.24219 16.3594C5.89062 17.4922 6.95312 18.3281 8.21094 18.6875L12.7344 19.9766C14.0781 20.3594 15 21.5859 15 22.9844V26.1016C15 26.9609 15.4844 27.7422 16.25 28.125C17.0156 28.5078 17.5 29.2891 17.5 30.1484V33.1953C17.5 34.4141 18.6641 35.2969 19.8359 34.9609C21.0938 34.6016 22.0703 33.5938 22.3906 32.3203L22.6094 31.4453C22.9375 30.125 23.7969 28.9922 24.9766 28.3203L25.6094 27.9609C26.7812 27.2969 27.5 26.0469 27.5 24.7031V24.0547C27.5 23.0625 27.1016 22.1094 26.3984 21.4062L26.0938 21.1016C25.3906 20.3984 24.4375 20 23.4453 20H20.0781C19.2109 20 18.3516 19.7734 17.5938 19.3438L14.8984 17.8047C14.5625 17.6094 14.3047 17.2969 14.1797 16.9297C13.9297 16.1797 14.2656 15.3672 14.9766 15.0156L15.4375 14.7812C15.9531 14.5234 16.5547 14.4766 17.1016 14.6641L18.9141 15.2656C19.5547 15.4766 20.2578 15.2344 20.625 14.6797C20.9922 14.1328 20.9531 13.4062 20.5312 12.8984L19.4688 11.625C18.6875 10.6875 18.6953 9.32031 19.4922 8.39844L20.7188 6.96875C21.4063 6.16406 21.5156 5.01562 20.9922 4.10156L20.8047 3.77344C20.5312 3.75781 20.2656 3.75 19.9922 3.75C12.7422 3.75 6.59375 8.50781 4.50781 15.0781ZM36.25 20C36.25 17.125 35.5 14.4219 34.1875 12.0703L32.1875 12.875C30.9609 13.3672 30.3281 14.7344 30.7422 15.9844L32.0625 19.9453C32.3359 20.7578 33 21.375 33.8281 21.5781L36.1016 22.1484C36.1953 21.4453 36.2422 20.7266 36.2422 20H36.25ZM0 20C0 14.6957 2.10714 9.60859 5.85786 5.85786C9.60859 2.10714 14.6957 0 20 0C25.3043 0 30.3914 2.10714 34.1421 5.85786C37.8929 9.60859 40 14.6957 40 20C40 25.3043 37.8929 30.3914 34.1421 34.1421C30.3914 37.8929 25.3043 40 20 40C14.6957 40 9.60859 37.8929 5.85786 34.1421C2.10714 30.3914 0 25.3043 0 20Z" fill="black"/>
</svg>
