<svg width="180" height="180" viewBox="0 0 180 180" fill="none" xmlns="http://www.w3.org/2000/svg">
<path d="M4.56257 6H46.1977C60.3224 20.7552 74.4605 35.5013 88.5806 50.27L88.6617 50.5943C88.7247 85.523 88.6211 120.456 88.7157 155.385C85.8196 154.934 82.8019 155.673 79.9058 155.349C61.7636 132.198 43.5629 109.088 25.4072 85.9509C25.2811 115.299 25.3892 144.652 25.3531 174H0V40.9062C8.36397 40.8972 16.7279 40.9107 25.0919 40.8972C28.2537 44.7661 31.2624 48.7657 34.3927 52.6662C46.2743 67.8853 58.3181 82.9737 70.1231 98.2514C70.2717 90.3558 70.1907 82.4513 70.1636 74.5557C48.3326 51.6753 26.4116 28.8669 4.56257 6Z" fill="#B42C1E"/>
<path d="M133.49 6H175.17C153.321 28.8624 131.423 51.6753 109.574 74.5332C109.538 82.4377 109.47 90.3513 109.605 98.2514C124.513 79.0642 139.602 60.0032 154.618 40.9017C162.991 40.9017 171.36 40.9017 179.733 40.9017V174H154.38C154.353 144.665 154.438 115.331 154.339 85.9959C136.12 109.07 117.987 132.216 99.8315 155.34C96.9444 155.691 93.9132 154.921 91.0171 155.385C91.1027 130.671 91.0306 105.953 91.0531 81.2397C91.1117 70.9255 90.936 60.5887 91.1432 50.2835C105.236 35.5013 119.424 20.8092 133.49 6Z" fill="#B42C1E"/>
</svg>
